<svg id="Capa_1" data-name="Capa 1" xmlns="http://www.w3.org/2000/svg" xmlns:xlink="http://www.w3.org/1999/xlink" viewBox="0 0 296.64 405.12"><defs><style>.cls-1{fill:none;}.cls-2,.cls-5{fill:#48ffd5;}.cls-2,.cls-4{fill-rule:evenodd;}.cls-3{clip-path:url(#clip-path);}.cls-4,.cls-6{fill:#fff;}</style><clipPath id="clip-path"><rect class="cls-1" x="-423.36" width="720" height="405.12"/></clipPath></defs><title>Mesa de trabajo 1</title><path class="cls-2" d="M159.09,361.2a7.85,7.85,0,0,1,7.95,7.92v17.76a7.93,7.93,0,0,1-7.95,7.92H110.67a7.93,7.93,0,0,1-7.95-7.92V369.12a7.86,7.86,0,0,1,7.95-7.92Z"/><path class="cls-2" d="M53.88,103.44a22.88,22.88,0,0,1,16,6.45l-3.36,3.63a18.06,18.06,0,0,0-25.32,0l-3.24-3.63A22.88,22.88,0,0,1,53.88,103.44Z"/><path class="cls-2" d="M53.93,113.52a12.62,12.62,0,0,1,9,3.7l-3.36,3.5a8,8,0,0,0-11.16,0l-3.48-3.5A12.94,12.94,0,0,1,53.93,113.52Z"/><path class="cls-2" d="M54,122.64a3.84,3.84,0,1,1,0,7.68,4.06,4.06,0,0,1-2.78-1.12A3.84,3.84,0,0,1,54,122.64Z"/><path class="cls-2" d="M54,92.88a33.61,33.61,0,0,1,23.28,9.33l-3.38,3.63a28.57,28.57,0,0,0-39.8,0l-3.38-3.63A33.63,33.63,0,0,1,54,92.88Z"/><g class="cls-3"><path class="cls-2" d="M102.87,78.72A13.4,13.4,0,0,0,89.52,92.08v217a13.48,13.48,0,0,0,13.35,13.36H176V325a8.32,8.32,0,0,0,1.44,4.69l4.21,6.74a2.43,2.43,0,0,1,.48,1.57v12.16h-4.44v38.28h4.44v3H221v-3h1.44V350.15H221v-11.8a1.93,1.93,0,0,1,.6-1.32l14.91-14.57H347.61A13.4,13.4,0,0,0,361,309.11v-217a13.4,13.4,0,0,0-13.35-13.36ZM358,114.47V309.11a10.35,10.35,0,0,1-10.34,10.35h-108l4-4h.12l.12-.12a8.4,8.4,0,0,0-6.37-13.85,10.38,10.38,0,0,0-4.57,1.21l-7.82,4.69V265.53a7.67,7.67,0,0,0-7.7-7.7h-.24a7.92,7.92,0,0,0-7.46,7.94V279a7.8,7.8,0,0,0-10.46,3.5,7.51,7.51,0,0,0-4.21-1.33h-.24a7.84,7.84,0,0,0-6.61,4.21,6.65,6.65,0,0,0-4.21-1.44h-.24a7.42,7.42,0,0,0-6.14,3.13h-69v3h67.71a6,6,0,0,0-.24,1.44v5.9H134v3h42v19H102.87a10.42,10.42,0,0,1-10.34-10.35V114.47ZM223.13,311.15v.12a1.65,1.65,0,0,1-.48-.36A.62.62,0,0,0,223.13,311.15Zm-1-1v.12a1.46,1.46,0,0,1-.12-.68A.83.83,0,0,0,222.17,310.19Zm-32.71-15.65h-.12c-.48,0-.72-.36-.72-.84A.82.82,0,0,0,189.46,294.54Zm.48-.12v-.12c.23-.11.24-.34.24-.57h0A.86.86,0,0,1,189.94,294.42ZM179,291.65v-.12c0-.23.11-.58.12-.82C179.11,290.95,179,291.3,179,291.65Zm20.8-2.88-.12.11v-1C199.68,288.16,199.8,288.52,199.8,288.77Zm-.24-1.21h-.12a1.3,1.3,0,0,0-.12-.6A2,2,0,0,1,199.56,287.56Zm-.36-.84h-.12c0-.24-.12-.36-.12-.6C199.08,286.36,199.08,286.48,199.2,286.72Zm-1.92-2h-.12c-.12,0-.24-.12-.36-.24C197,284.55,197.16,284.67,197.28,284.67Zm-.84-.36-.12.12c-.12-.12-.24-.24-.36-.24C196.08,284.19,196.32,284.31,196.44,284.31Zm25.61-18.9v.12a2.37,2.37,0,0,0-.12-.95h0A2.07,2.07,0,0,1,222.05,265.41Zm-.6-2.16v.12c0-.24-.12-.36-.24-.6C221.33,263,221.45,263.13,221.45,263.25Zm-1.92-1.93c-.12,0-.24-.12-.36-.24C219.29,261.2,219.41,261.2,219.53,261.32Z"/></g><g class="cls-3"><path class="cls-2" d="M303.24,217a35,35,0,0,0-10,1.45l1.2,4.34a32,32,0,0,0-12.64,7l-3-3.49a35.92,35.92,0,0,0-7.7,9.76l4,2.17a32.44,32.44,0,0,0-4,13.75l-4.69-.12V254a40.29,40.29,0,0,0,1.32,10.13l4.45-1.21A33.56,33.56,0,0,0,279,275.44l-3.37,3a37.79,37.79,0,0,0,9.63,7.84l2.17-4.1a31.76,31.76,0,0,0,13.85,4.1l-.24,4.58h2.17a35.16,35.16,0,0,0,10.11-1.45h.12l-1.08-4.34a32,32,0,0,0,12.64-7l3,3.37a40,40,0,0,0,7.7-9.64l-4-2.17a33.51,33.51,0,0,0,4-13.87l4.58.24v-2.17a40.2,40.2,0,0,0-1.45-10v-.12l-4.45,1.21a32,32,0,0,0-6.86-12.54l3.37-3a34.76,34.76,0,0,0-9.63-7.71L319,225.52a31.13,31.13,0,0,0-13.84-4l.24-4.58ZM328,250.48A25,25,0,0,1,310.1,278a31.48,31.48,0,0,1-6.74,1,25,25,0,0,1-6.74-49,21.33,21.33,0,0,1,6.74-1A24.92,24.92,0,0,1,328,250.48Z"/></g><path class="cls-4" d="M261.36,239.66a25,25,0,0,0-.61-11.93v-.12l-3,.85a18,18,0,0,0-3-6.51l2.65-1.8a26.28,26.28,0,0,0-9-8.07l-1.57,2.65a21.33,21.33,0,0,0-6.75-2.41l.6-3a23.17,23.17,0,0,0-4.9-.51,27.34,27.34,0,0,0-7.15,1h-.12l.84,3a24.78,24.78,0,0,0-6.51,3l-1.68-2.53a24.58,24.58,0,0,0-8.2,9l2.65,1.45a23.71,23.71,0,0,0-2.41,6.74l-3-.48a25.5,25.5,0,0,0,.49,12l3-.85a22.87,22.87,0,0,0,3,6.51l-2.53,1.68A26.56,26.56,0,0,0,223,257.6l1.45-2.65a28,28,0,0,0,6.75,2.41l-.6,3a24.32,24.32,0,0,0,5,.51,27.37,27.37,0,0,0,7.17-1H243l-.72-3a24,24,0,0,0,6.39-3l1.81,2.53a25.25,25.25,0,0,0,8.07-9l-2.65-1.56a21.33,21.33,0,0,0,2.41-6.75Zm-23.51,10.6a16.09,16.09,0,0,1-2.18.15,15.38,15.38,0,0,1-14.82-11.23,18,18,0,0,1-.6-4.22A15.49,15.49,0,0,1,231.46,220a16.62,16.62,0,0,1,4.22-.61,15.49,15.49,0,0,1,15,11.32,16.35,16.35,0,0,1,.6,4.22A15.36,15.36,0,0,1,237.85,250.26Z"/><path class="cls-2" d="M143,340.87a13.34,13.34,0,0,0,.24-2.17,15.28,15.28,0,0,0-.48-3.26v-.12l-1.31.37a10.07,10.07,0,0,0-1.43-3l1.19-.72a10.94,10.94,0,0,0-4.06-3.74l-.71,1.32a12.69,12.69,0,0,0-3-1.08l.24-1.45a12.92,12.92,0,0,0-2.15-.12,13.22,13.22,0,0,0-3.22.36l.35,1.45a9.25,9.25,0,0,0-3,1.33l-.84-1.21a15.29,15.29,0,0,0-3.7,4.1l1.32.72a9.36,9.36,0,0,0-1.2,3l-1.31-.24a13.34,13.34,0,0,0-.24,2.17,9.79,9.79,0,0,0,.48,3.26l1.31-.49a8.58,8.58,0,0,0,1.32,3l-1.08.84a11.75,11.75,0,0,0,3.94,3.74l.72-1.2a12.62,12.62,0,0,0,3,1.08l-.24,1.33a7,7,0,0,0,2.27.24,14.65,14.65,0,0,0,3.22-.36h.12l-.47-1.45a8.23,8.23,0,0,0,3-1.33l.84,1.09a11.21,11.21,0,0,0,3.7-4.1l-1.32-.6a9.36,9.36,0,0,0,1.2-3Zm-9.67,4.58a9.2,9.2,0,0,1-1.91.25,7.06,7.06,0,0,1-6.69-5.19,10.21,10.21,0,0,1-.23-1.93,6.93,6.93,0,0,1,5.13-6.75,4.74,4.74,0,0,1,1.91-.25,6.93,6.93,0,0,1,6.69,5.07,11.55,11.55,0,0,1,.23,1.93A7.17,7.17,0,0,1,133.37,345.45Z"/><rect class="cls-5" x="108.48" y="162.72" width="77.76" height="2.88"/><rect class="cls-5" x="108.48" y="173.04" width="77.76" height="2.88"/><rect class="cls-6" x="108.48" y="183.36" width="77.76" height="2.88"/><rect class="cls-5" x="108.48" y="251.52" width="77.76" height="2.88"/><rect class="cls-5" x="108.48" y="261.84" width="77.76" height="2.88"/><rect class="cls-6" x="108.48" y="235.2" width="77.76" height="2.88"/><g class="cls-3"><rect class="cls-5" x="204.24" y="162.72" width="134.4" height="2.88"/></g><g class="cls-3"><rect class="cls-5" x="204.24" y="173.04" width="134.4" height="2.88"/></g><g class="cls-3"><rect class="cls-5" x="248.16" y="193.68" width="90.48" height="3.12"/></g><rect class="cls-5" x="121.92" y="141.6" width="55.2" height="9.12"/><g class="cls-3"><rect class="cls-6" x="243.84" y="141.6" width="55.2" height="9.12"/></g><path class="cls-2" d="M98.88,194.16v33.6H195.6v-33.6Zm93.71,30.59h-90.7V197.17h90.7Z"/><path class="cls-2" d="M136.32,29A72.34,72.34,0,0,0,96.66,15.87a7.39,7.39,0,0,0-4,0A71.64,71.64,0,0,0,53.16,29l-1.8,1.21,1.8,1.2A71.47,71.47,0,0,0,94.74,44.64,71.74,71.74,0,0,0,136.32,31.4L138,30.2ZM56.65,30.2a70.44,70.44,0,0,1,23.67-9.87,15.66,15.66,0,0,0,11,21.15A68.13,68.13,0,0,1,56.65,30.2Zm38,8.66A12.55,12.55,0,0,1,84,19.6l2.64-.36a10.63,10.63,0,1,0,15.86,0c1,.12,1.8.24,2.64.36A12.55,12.55,0,0,1,94.62,38.86Zm2.64,2.77A15.58,15.58,0,0,0,109,20.33a71,71,0,0,1,12.28,3.8,65.57,65.57,0,0,1,11.39,6.07A69.13,69.13,0,0,1,97.26,41.63Z"/><path class="cls-2" d="M147.44,119.52a7.8,7.8,0,1,0,.09,15.6,7.8,7.8,0,0,0-.09-15.6Zm0,12.63a4.75,4.75,0,0,1-3.38-1.43,4.82,4.82,0,0,1,3.46-8.2h.2a4.71,4.71,0,0,1,4.57,4.76A4.85,4.85,0,0,1,147.45,132.15Z"/><path class="cls-2" d="M71.84,202.56a6.36,6.36,0,1,1-6.56,6.33A6.4,6.4,0,0,1,71.84,202.56Z"/><path class="cls-4" d="M276.23,362.88a6.24,6.24,0,0,1,4.45,1.85,6.41,6.41,0,1,1-4.45-1.85Z"/><path class="cls-4" d="M26.88,67.2A6.23,6.23,0,0,1,31.29,69a6.41,6.41,0,1,1-4.41-1.83Z"/><path class="cls-2" d="M244.93,345.79h-1.68a7.64,7.64,0,0,0-7.64-6.43h-.15c-6.48,0-10.1,7.81-5.83,13a7.74,7.74,0,0,0,13.62-3.51h1.68A1.52,1.52,0,1,0,244.93,345.79Zm-9.32,6.43a5,5,0,0,1-4.79-5,4.87,4.87,0,0,1,4.87-4.93,4.79,4.79,0,0,1,3.38,1.41C242.06,346.88,239.91,352.22,235.61,352.22Z"/><path class="cls-2" d="M51.56,142.56H9.88A9.94,9.94,0,0,0,0,152.46v20.65a9.76,9.76,0,0,0,9.88,9.79h4.21l16.27,16.3-.6-16.3h21.8a9.84,9.84,0,0,0,9.88-9.79V152.46A9.94,9.94,0,0,0,51.56,142.56Zm6.87,30.55a6.85,6.85,0,0,1-6.87,6.77H26.62l.49,11.71L15.42,179.88H9.88A6.85,6.85,0,0,1,3,173.11V152.46a7,7,0,0,1,6.87-6.88H51.56a7,7,0,0,1,6.87,6.88Z"/><path class="cls-2" d="M78,269.82h-.61a9.68,9.68,0,0,0,3.75-7.58c0-4.21-6.28-16.35-8.57-20.56v18a3.12,3.12,0,1,1-1.58,0v-18c-2.29,4.21-8.57,16.35-8.57,20.56a9.46,9.46,0,0,0,3.86,7.58h-.72l-1.09,16.47h-.12v1.57l-.12,1.44h.12l1.21,68.3H78.1l1.09-68.3h.12v-3h-.12ZM67.35,286.17l1-13.47H75.2L76,286.17Z"/><path class="cls-4" d="M45,237.6a1.57,1.57,0,0,1,.47,3A53,53,0,0,0,40,243.11a.92.92,0,0,1-.6.25,1.58,1.58,0,0,1-.74-3,58.56,58.56,0,0,1,5.61-2.6A1.73,1.73,0,0,1,45,237.6Z"/><path class="cls-4" d="M6.06,293.76a1.51,1.51,0,0,1,1.58,1.45H12v12H0V295.33H4.61v-.12A1.4,1.4,0,0,1,6.06,293.76Z"/><path class="cls-4" d="M34.26,243.12a1.55,1.55,0,0,1,1.26.74,1.47,1.47,0,0,1-.49,2.06c-1.56,1.09-3.13,2.18-4.7,3.51a2.27,2.27,0,0,1-1,.24h-.11v10.66H18a1.52,1.52,0,0,1,.36,1.94,58.26,58.26,0,0,0-3.14,5.08,1.37,1.37,0,0,1-1.32.73.88.88,0,0,1-.72-.24,1.52,1.52,0,0,1-.61-2.06c1-1.7,2.05-3.51,3.26-5.21a1.62,1.62,0,0,1,1.45-.6V248.34H27.92A1.83,1.83,0,0,1,28.4,247c1.69-1.21,3.38-2.55,5.07-3.64A1.39,1.39,0,0,1,34.26,243.12Z"/><path class="cls-4" d="M78.72,228.24v12H66.82v-4.12c-1.57,0-2.89.12-4.33.24h-.35c-1.82,0-1.9-2.91,0-3,1.56-.12,3.12-.24,4.69-.24v-4.85Z"/><path class="cls-4" d="M7.48,281.76a1.51,1.51,0,0,1,1.52,2c-.37,1.84-.74,3.81-1,5.78a1.6,1.6,0,0,1-1.6,1.35H6.28a1.54,1.54,0,0,1-1.36-1.72A55.16,55.16,0,0,1,6,283,1.43,1.43,0,0,1,7.48,281.76Z"/><path class="cls-4" d="M56.41,234.24a1.35,1.35,0,0,1,1.31,1.21,1.46,1.46,0,0,1-1.2,1.72,44.67,44.67,0,0,0-5.64,1.39H50.4a1.91,1.91,0,0,1-1.44-1A1.47,1.47,0,0,1,50,235.68a45.48,45.48,0,0,1,6-1.39A1.64,1.64,0,0,1,56.41,234.24Z"/><path class="cls-4" d="M11.23,270.48a1.48,1.48,0,0,1,1.35,2.21c-.72,1.67-1.43,3.57-2,5.36a1.69,1.69,0,0,1-1.43,1.07.72.72,0,0,1-.48-.12,1.55,1.55,0,0,1-1-1.9,46,46,0,0,1,2.15-5.6A1.5,1.5,0,0,1,11.23,270.48Z"/><rect class="cls-5" x="220.32" y="137.04" width="18" height="18.24"/><rect class="cls-6" x="137.28" y="54" width="18" height="18.24"/><rect class="cls-5" x="91.68" y="54" width="18.24" height="18.24"/><path class="cls-2" d="M16.32,195.36,1.2,209.62V229.2H13.56V217.11h5.52V229.2H31.44V209.62Zm12.12,30.82H22.08V214.09H10.56v12.09H4.2V211l12.12-11.48L28.44,211Z"/><path class="cls-2" d="M220.68,19.92a16.73,16.73,0,0,0-11.93,5C198,35.56,205.61,53.76,220.82,53.76a16.92,16.92,0,1,0-.14-33.84Zm0,30.86A13.9,13.9,0,1,1,220.82,23a13.9,13.9,0,1,1-.12,27.79Z"/><polygon class="cls-2" points="221.64 26.16 221.64 36.84 226.32 41.76 224.16 43.92 218.64 38.04 218.64 26.16 221.64 26.16"/><polygon class="cls-2" points="31.27 28.8 33.36 30.94 29.8 34.5 33.36 37.94 31.27 40.08 27.6 36.52 23.92 40.08 21.84 37.94 25.4 34.5 21.84 30.94 23.92 28.8 27.6 32.36 31.27 28.8"/><path class="cls-2" d="M170.67,122.16v3.64H274.19a1.52,1.52,0,1,1,0,3H170.67v3.64l-8.91-5.22Z"/><g class="cls-3"><path class="cls-4" d="M365.39,20.16v4.45H395a14.85,14.85,0,0,1,14.92,14.92V65.27a1.57,1.57,0,0,1-1.56,1.45,1.46,1.46,0,0,1-1.45-1.45V39.41A11.84,11.84,0,0,0,395,27.62H365.39v4.57H353.47V27.62H259.83v3.61l-8.79-5L259.83,21v3.61h93.64V20.16Z"/></g><path class="cls-2" d="M71.76,49.68V61.59H59.88V57H26a11.49,11.49,0,0,0-11.4,11.43v56.44h3.6l-5,8.79-5-8.79h3.48V68.45A14.52,14.52,0,0,1,26,54.13H59.88V49.68Z"/><path class="cls-2" d="M197,47.52l5.1,8.89h-3.64V69.75a1.52,1.52,0,1,1-3,0V56.41h-3.64Z"/><path class="cls-2" d="M172.2,48.48l5.16,8.89h-3.69l.13,13.34a1.54,1.54,0,0,1-3.07,0V57.37H167Z"/><path class="cls-4" d="M43.06,364.8v4.53H88.55a1.53,1.53,0,0,1,0,3.06H43.06V377H31.14v-4.65H20.07v3.67l-8.79-5.14,8.79-5.26v3.67H31.14V364.8Z"/><g class="cls-3"><path class="cls-4" d="M241.94,375.12l5.18,8.78h-3.61v7.7a5.65,5.65,0,0,0,5.66,5.66h19v-4.69h11.93v4.69H317a6.23,6.23,0,0,1,6.29-5.23,6.43,6.43,0,1,1-6.17,8.24h-37v4.21H268.21v-4.21H249.29a8.66,8.66,0,0,1-8.8-8.66v-7.7h-3.62Z"/></g><path class="cls-2" d="M52.8,273.84c0,5.44-3.63,9.06-6.66,12-1.94,1.94-3.63,3.75-3.87,5.32.24,1.57,1.93,3.38,3.87,5.2,3,3,6.66,6.64,6.66,12.08h-3c0-4.11-2.9-7-5.69-9.79-2.42-2.29-4.6-4.59-4.72-7.25V291c.12-2.78,2.3-4.95,4.72-7.25,2.79-2.9,5.69-5.8,5.69-9.91Z"/><path class="cls-2" d="M27.53,273.84c0,4.22,2.93,7.11,5.87,9.88,2.32,2.28,4.51,4.57,4.76,7.22v.36c-.25,2.77-2.44,4.94-4.76,7.22-2.94,2.77-5.87,5.78-5.87,9.88H24.48c0-5.42,3.79-9,6.72-12,2-1.93,3.78-3.74,3.91-5.3-.13-1.57-2-3.25-3.91-5.18-3.06-3-6.72-6.62-6.72-12Z"/><path class="cls-2" d="M45.6,280.8a52.58,52.58,0,0,1-3.72,3.77,15.2,15.2,0,0,0-2.76,3.89,5.15,5.15,0,0,0-.48,1.22c0-.12-.12-.37-.12-.49a9.48,9.48,0,0,0-1-1.94,33.6,33.6,0,0,0-2.64-3.17c-1.08-1.09-2.28-2.18-3.24-3.28Z"/><rect class="cls-5" x="21.84" y="270" width="33.84" height="2.88"/><rect class="cls-5" x="21.84" y="309.36" width="33.84" height="2.88"/><path class="cls-2" d="M13.79,156v13.44h3V164.6H19a4,4,0,0,0,3.83-4.24A4.19,4.19,0,0,0,18.65,156Zm3,2.42h1.42A1.8,1.8,0,0,1,20,160.36a1.87,1.87,0,0,1-1.78,1.94H16.75Z"/><polygon class="cls-2" points="24.11 156 24.11 169.44 27.14 169.44 27.14 164.11 31.51 164.11 31.51 169.44 34.67 169.44 34.67 156 31.51 156 31.51 161.33 27.14 161.33 27.14 156 24.11 156"/><path class="cls-2" d="M37.07,156v13.44H40V164.6h2.24a4,4,0,0,0,3.88-4.24A4.27,4.27,0,0,0,42,156ZM40,158.42h1.56a1.81,1.81,0,0,1,1.8,1.94,1.88,1.88,0,0,1-1.8,1.94H40Z"/><path class="cls-2" d="M169.32,29.76v8.18c0,1.47,0,2.69-2.16,2.69a2.11,2.11,0,0,1-1.8-1v3.54a4.49,4.49,0,0,0,1.8.25c3.24,0,5.16-1.34,5.16-5.25V29.76Z"/><path class="cls-2" d="M179.22,29.52c-2.43,0-5,1.21-5,4,0,5,7.76,3.27,7.76,5.94,0,1.21-1.58,1.57-2.43,1.57h-.22a2.59,2.59,0,0,1-2.57-2.31h-3c0,3.14,2.79,4.72,5.7,4.72S185,42.23,185,39.08c0-5.08-7.76-3.39-7.76-5.81,0-1,1.21-1.33,1.94-1.33,1.58,0,2.3.49,2.54,1.82h2.79C184.43,30.73,182,29.52,179.22,29.52Z"/><polygon class="cls-2" points="127.68 204.48 127.68 217.92 130.56 217.92 130.56 212.59 134.88 212.59 134.88 217.92 138 217.92 138 204.48 134.88 204.48 134.88 209.93 130.56 209.93 130.56 204.48 127.68 204.48"/><polygon class="cls-2" points="139.44 204.48 139.44 207.26 143.28 207.26 143.28 217.92 146.16 217.92 146.16 207.26 150 207.26 150 204.48 139.44 204.48"/><polygon class="cls-2" points="152.66 204.48 150 217.92 153.26 217.92 154.83 208.72 157.49 217.92 160.39 217.92 162.93 208.72 164.5 217.92 167.76 217.92 165.22 204.48 161.72 204.48 158.94 213.92 156.16 204.48 152.66 204.48"/><polygon class="cls-2" points="169.2 204.48 169.2 217.92 176.88 217.92 176.88 215.25 172.08 215.25 172.08 204.48 169.2 204.48"/><rect class="cls-5" x="25.68" y="329.52" width="18.24" height="18.24"/></svg>