<svg id="Capa_1" data-name="Capa 1" xmlns="http://www.w3.org/2000/svg" viewBox="0 0 461.49 256.93"><defs><style>.cls-1{fill:#48ffd5;}</style></defs><title>next</title><path class="cls-1" d="M43.8,102.3a17,17,0,0,1,12.07,5L248.6,300,441.34,107.29a17.07,17.07,0,0,1,24.13,24.13l-204.8,204.8a17.07,17.07,0,0,1-24.13,0L31.74,131.43A17.06,17.06,0,0,1,43.8,102.3m0-9a26.06,26.06,0,0,0-18.43,44.49l204.8,204.8a26.07,26.07,0,0,0,36.86,0l204.8-204.8.11-.11a26.07,26.07,0,0,0-36.86-36.86l-.11.11L248.6,287.3,62.23,100.93A25.89,25.89,0,0,0,43.8,93.3Z" transform="translate(-17.75 -93.3)"/></svg>